<svg fill="none" height="24" viewBox="0 0 24 24" width="24" xmlns="http://www.w3.org/2000/svg">
    <defs>
      <linearGradient gradientUnits="userSpaceOnUse" x1="11.951" y1="9" x2="11.951" y2="15" id="gradient-0">
        <stop offset="0" style="stop-color: rgba(79, 79, 79, 1)"></stop>
        <stop offset="1" style="stop-color: rgba(28, 28, 28, 1)"></stop>
      </linearGradient>
    </defs>
    <path d="M21.9012 13H16.8506C16.3873 15.2822 14.3696 17 11.9506 17C9.53167 17 7.51391 15.2822 7.05064 13H2C2.50172 18.0533 6.76528 22 11.9506 22C17.136 22 21.3995 18.0533 21.9012 13Z" fill="#4F4F4F"></path>
    <path d="M21.9012 11C21.3995 5.94668 17.136 2 11.9506 2C6.76528 2 2.50172 5.94668 2 11H7.05064C7.51391 8.71776 9.53167 7 11.9506 7C14.3696 7 16.3873 8.71776 16.8506 11H21.9012Z" fill="#4F4F4F"></path>
    <path clip-rule="evenodd" d="M 11.951 15 C 13.608 15 14.951 13.657 14.951 12 C 14.951 10.343 13.608 9 11.951 9 C 10.294 9 8.951 10.343 8.951 12 C 8.951 13.657 10.294 15 11.951 15 Z" fill-rule="evenodd" style="paint-order: fill; fill-rule: evenodd; fill: rgb(79, 79, 79);"></path>
  </svg>